<?xml version="1.0" encoding="UTF-8"?>
<svg version="1.1" viewBox="0 0 1200 1200" width="1280" height="1280" xmlns="http://www.w3.org/2000/svg">
<path transform="translate(0)" d="m0 0h1200v1200h-1200z" fill="#0A131B"/>
<path transform="translate(91,517)" d="m0 0 8 1 40 20 33 15 38 16 37 14 50 17 49 14 36 9 45 9 46 7 36 4 24 2 19 1h63l47-3 38-4 41-6 52-10 46-11 38-11 49-16 34-13 31-13 10-4 9 1 7 6 2 4v9l-5 8-21 14-28 17-24 13-16 8-27 13-30 12-34 12-42 12-49 11-43 7-36 4-29 2h-85l-44-4-42-6-36-7-37-9-35-10-35-12-41-16-33-15-25-12-22-12-18-10-26-16-12-8-23-16-19-14-11-9-5-5 1-6z" fill="#fff"/>
<path transform="translate(1024,493)" d="m0 0h24l22 2 20 4 13 5 7 6 3 8v19l-4 25-6 22-7 20-7 16-9 16-9 13-7 9-11 12-9 7-6 2-4-3-1-5 16-43 9-27 6-24 1-6v-21l-4-8-8-5-12-3-8-1h-36l-34 3-25 3h-6l-4-3v-7l9-8 18-10 17-7 20-6 22-4z" fill="#fff"/>
</svg>
