<?xml version="1.0" encoding="UTF-8"?>
<svg version="1.1" viewBox="0 0 896 896" xmlns="http://www.w3.org/2000/svg">
<path transform="translate(0)" d="m0 0h896v896h-896z" fill="#F07400"/>
<path transform="translate(695,386)" d="m0 0h9l12 3 11 5 4 1v-8h26v110l-3 14-4 10-7 10-10 10-16 8-10 3-6 1h-14l-16-5-13-7-6-5 1-5 10-10 5-7 5 1 8 5 5 1h13l9-3 10-8 4-7-17 4h-11l-12-2-16-8-10-9-6-7-8-17-2-9v-16l3-12 8-15 6-8 10-8 9-5 7-3z" fill="#FEFDFC"/>
<path transform="translate(571,386)" d="m0 0h9l15 3 12 6 1-7 1-1 24-1 1 1v111l-4 17-6 11-8 10-11 8-16 7-11 2h-13l-15-4-13-7-9-7 3-5 10-10 5-6 5 2 8 4 4 1h15l12-6 8-9 1-3-17 4h-13l-10-2-16-8-10-9-6-7-6-12-4-14v-16l4-14 9-16 12-12 8-5 7-3z" fill="#FEFDFC"/>
<path transform="translate(311,342)" d="m0 0 5 1v51l11-5 8-2h13l12 3 11 6 6 5 7 10 4 10 2 12v74h-31l-2-1-1-69-4-9-5-6-4-2h-13l-8 4-4 6-1 3-1 72-2 2h-30l-3-3v-155l3-2 24-4z" fill="#FEFDFC"/>
<path transform="translate(448,386)" d="m0 0h12l16 5 11 6 10 10 7 11 5 11 2 13v18l-1 1-40 1h-29l-10-1 3 6 5 6 9 5 3 1h13l10-3 8-5 5-1 15 11 2 4-9 10-10 7-11 5-6 2-19 1-12-3-12-6-10-8-8-9-8-16-3-10v-20l4-13 8-15 9-10 9-7 13-5z" fill="#FEFDFC"/>
<path transform="translate(216,343)" d="m0 0h9l16 3 14 5 13 7 3 3-1 5-10 17-2 4-5-2-12-6-10-3h-17l-15 5-11 8-7 8-6 11-2 7-1 14 3 14 6 12 9 10 11 7 13 4 10 1 16-3 12-6 3-2h4l7 14 5 9-2 4-9 6-17 7-12 3h-21l-19-5-17-9-10-8-9-9-7-11-5-10-5-16-1-7v-15l3-14 5-13 8-15 12-13 14-10 13-6 15-4z" fill="#FEFDFC"/>
<path transform="translate(576,418)" d="m0 0 10 1 9 5 7 9 4 11v8l-4 9-5 7-9 6-3 1h-13l-10-5-6-7-4-8-1-3v-10l4-10 5-7 10-6z" fill="#F07400"/>
<path transform="translate(697,418)" d="m0 0h7l11 4 8 8 5 10 1 10-3 9-4 6-9 8-5 2h-13l-10-5-7-8-3-6-1-5v-8l3-10 7-8 5-4z" fill="#F07400"/>
<path transform="translate(447,413)" d="m0 0h15l8 4 7 7 6 12v3h-54l-1-5 5-10 4-5z" fill="#F07400"/>
</svg>
