<?xml version="1.0" encoding="UTF-8"?>
<svg version="1.1" viewBox="0 0 2048 1537" width="1280" height="1280" xmlns="http://www.w3.org/2000/svg">
<path transform="translate(0)" d="m0 0h2048v1537h-2048z" fill="#FEFEFE"/>
<path transform="translate(468,507)" d="m0 0h10l12 3 14 7 11 9 83 83 8 7 106 106v214h-93l1 92h-217l-116-116-8-7-73-73-9-13-5-13-2-11 1-11 4-12 12-26 22-45 11-23 12-25 11-24 8-16 9-17 86-43 19-10 22-11 17-8 19-10 13-5z" fill="#32BBFC"/>
<path transform="translate(468,507)" d="m0 0h10l12 3 14 7 11 9 83 83 8 7 106 106v214l-94-1-334-334-3-4 9-6 76-38 19-10 22-11 17-8 19-10 13-5z" fill="#045999"/>
<path transform="translate(1018,622)" d="m0 0h77l18 2 17 4 19 7 17 10 14 12 7 7 10 14 8 15 7 21 3 16 1 9v36l-3 21-6 20-8 17-10 14-9 10-9 8-15 10-17 8-17 5-18 3-11 1h-76v-269z" fill="#FEFEFE"/>
<path transform="translate(1369,675)" d="m0 0h32l19 3 18 6 17 9 14 12 10 13 8 16 4 12 2 12 1 11v68l-1 95h-39v-36l-5 5-7 9-7 7-14 10-15 7-18 5-7 1h-22l-16-3-17-6-13-7-9-7-6-5-9-12-7-14-4-15-1-8v-13l3-18 7-16 9-12 11-10 13-8 13-6 17-5 22-3h20l19 2 18 4 15 5 10 4-2-26-4-13-6-10-7-8-14-9-12-5-17-3h-13l-14 2-15 5-11 6-11 9-9 11-4-2-11-8-16-12-1-2 7-9 8-9 13-10 16-9 21-7z" fill="#747577"/>
<path transform="translate(977,582)" d="m0 0h120l26 3 20 5 19 7 21 11 17 12 13 12 9 10 12 17 8 15 8 21 5 19 3 19 1 13v23l-3 26-5 21-6 17-8 16-7 12-10 13-12 13-12 10-15 10-17 9-18 7-25 6-26 3h-119v-349zm41 40-1 1v269h76l24-3 19-5 16-7 12-7 13-10 10-10 12-17 8-17 6-20 3-21v-36l-3-20-4-15-6-15-9-16-11-13-7-7-13-10-16-9-24-8-17-3-11-1z" fill="#747577"/>
<path transform="translate(1788,612)" d="m0 0h6l1 1 1 69 60 1v37l-1 1h-60l1 144 3 16 4 8 8 7 13 4h11l12-3 10-4 1 2-1 39-16 5-7 1h-18l-16-3-12-5-10-6-9-8-7-10-5-11-3-12-1-13v-41l1-110h-44v-38l2-1h41v-30l1-39z" fill="#747577"/>
<path transform="translate(468,507)" d="m0 0h10l12 3 14 7 11 9 77 77-2 1-13-4-14-2h-258l-1 2h-16l-5-5 27-14 56-28 19-10 22-11 17-8 19-10 13-5z" fill="#32BBFC"/>
<path transform="translate(278,599)" d="m0 0h2v274l1 19 2 10 4 8-4-1-77-77-9-13-5-13-2-11 1-11 4-12 12-26 22-45 11-23 12-25 11-24 8-16z" fill="#05599A"/>
<path transform="translate(1641,680)" d="m0 0h28l3 1v43l-12-1h-19l-15 3-10 4-13 9-10 11-8 15-4 14-1 7-1 124-1 26h-40l-1-1v-248l1-1h39v40h2l2-6 6-10 10-11 14-9 16-7z" fill="#747577"/>
<path transform="translate(1372,807)" d="m0 0h33l21 4 18 7 10 6-1 13-4 15-9 17-11 12-9 8-17 9-15 4-8 1h-10l-16-3-12-5-9-7-7-8-4-9-2-10v-9l2-10 6-12 12-12 14-7z" fill="#FEFEFE"/>
</svg>
