<?xml version="1.0" encoding="UTF-8"?>
<svg version="1.1" viewBox="0 0 2048 573" width="1280" height="1280" xmlns="http://www.w3.org/2000/svg">
<path transform="translate(0)" d="m0 0h2048v573h-2048z" fill="#FFFFFE"/>
<path transform="translate(259,8)" d="m0 0h39l29 4 23 5 16 5 19 7 18 8 21 12 12 8 16 12 14 12 21 21 11 14 11 15 8 13 10 18 10 22 9 28 5 22 3 19 2 29-1 27-3 23-6 27-10 30-9 20-11 20-10 15-12 16-10 11-7 8-11 11-22 18-13 9-20 12-15 8-27 11-25 7-24 5-16 2-17 1h-20l-31-3-25-5-24-7-25-10-27-14-15-10-12-9-11-9-13-12-14-14-11-14-10-13-12-19-12-23-10-25-8-28-4-22-2-19-1-26 2-28 4-26 7-26 9-24 12-25 11-18 12-17 14-17 23-23 11-9 13-10 19-12 20-11 21-9 28-9 21-5z" fill="#8CEE58"/>
<path transform="translate(259,8)" d="m0 0h39l29 4 23 5 16 5 19 7 18 8 21 12 12 8 16 12 14 12 21 21 11 14 11 15 8 13 10 18 10 22 9 28 5 22 3 19 2 29-1 27-3 23-6 27-10 30-9 20-11 20-10 15-12 16-10 11-7 8-11 11-22 18-13 9-20 12-15 8-27 11-25 7-24 5-16 2-17 1h-20l-31-3-25-5-24-7-25-10-27-14-15-10-12-9-11-9-13-12-14-14-11-14-10-13-12-19-12-23-10-25-8-28-4-22-2-19-1-26 2-28 4-26 7-26 9-24 12-25 11-18 12-17 14-17 23-23 11-9 13-10 19-12 20-11 21-9 28-9 21-5zm22 26-33 2-24 4-19 5-20 7-20 9-18 10-12 8-12 9-13 11-13 12-9 10-10 12-11 16-9 15-8 15-10 25-6 20-5 25-2 18v31l3 28 5 23 6 20 9 22 12 23 10 15 9 12 12 14 21 21 17 13 18 12 22 12 25 10 21 6 26 5 17 2h37l28-4 28-7 22-8 25-12 21-13 13-10 14-12 19-19 11-14 10-14 12-20 10-21 8-22 7-28 3-22 1-13v-18l-2-25-3-19-7-27-8-21-11-23-9-15-10-14-8-10-18-20-12-11-17-13-17-11-22-12-25-10-23-7-21-4-34-3z" fill="#1D3948"/>
<path transform="translate(1555,204)" d="m0 0h21l14 2 68 1 1 1v17l-7 2-24 3h-4l7 12 4 13 1 8v10l-3 16-7 14-8 9-13 9-14 5-15 3h-29l-11 8-5 9v11l3 5 11 4 11 1 50 1 15 3 12 5 10 7 6 7 5 11 2 9v17l-4 16-7 11-11 11-14 8-18 6-25 4h-38l-20-4-15-6-11-8-7-8-5-10-2-9v-16l3-10 6-10 4-5 13-9 10-4h5v-2l-4-2-5-4-5-8-2-7v-10l4-11 6-8 11-8-5-4-11-9-9-13-5-14-1-6v-19l3-14 5-12 8-10 8-7 16-8 12-3z" fill="#1D3948"/>
<path transform="translate(1361,204)" d="m0 0h23l14 2 69 1v19l-31 4-3 1 5 8 5 15 1 5v18l-3 13-6 12-11 12-11 7-13 5-15 3h-30l-8 6-6 7-2 6v8l4 6 7 3 3 1 11 1 50 1 15 3 12 5 9 6 8 9 5 12 1 5v21l-3 12-5 10-10 11-10 7-13 6-13 4-25 4h-36l-17-3-15-5-11-6-8-7-7-11-4-14v-13l4-13 5-9 8-8 13-8 11-3-8-7-4-5-3-7v-15l4-10 7-8 10-8-10-6-10-10-7-12-4-13-1-7v-12l3-17 5-12 8-11 10-8 14-7 12-3z" fill="#1D3948"/>
<path transform="translate(846,207)" d="m0 0h29l5 18 20 79 6 22 7 32 2 8 8-31 9-29 18-56 13-41 2-2h30l3 7 8 26 30 97 7 29 7-31 13-50 20-76 1-2h29l-1 8-25 91-18 65-7 25-2 2h-32l-3-4-14-45-23-74-8-31v-4h-2l-2 12-9 33-16 49-16 50-4 12-2 2h-31l-2-1-18-66-17-62-16-59z" fill="#1D3948"/>
<path transform="translate(1199,204)" d="m0 0h12l19 3 13 5 11 8 8 11 5 13 2 13v140l-1 1h-20l-4-15-3-12-11 12-8 7-14 7-11 3-7 1h-26l-15-4-10-5-10-8-6-9-4-9-2-9-1-14 3-16 7-14 10-10 16-9 17-5 16-3 28-2 27-1v-21l-3-13-6-10-8-6-9-3-7-1h-13l-18 3-15 5-12 5h-3l-8-20v-2l16-7 21-6 11-2z" fill="#1D3948"/>
<path transform="translate(1739,204)" d="m0 0h20l15 3 12 5 10 6 10 9 9 13 6 13 4 15 1 6 1 33-1 1h-131l4 25 6 15 8 11 8 7 12 6 14 3h20l22-3 21-6 8-3v26l-12 5-19 5-13 2h-32l-18-4-15-6-13-9-12-12-9-15-5-14-3-11-2-20v-12l2-20 5-19 6-14 9-13 9-10 10-7 14-7 13-3z" fill="#1D3948"/>
<path transform="translate(760,140)" d="m0 0h17l20 2 21 5 18 6 1 3-8 22-2 2-20-7-19-4-8-1h-25l-13 3-10 5-7 6-5 9-2 7v14l2 9 5 9 8 8 14 8 21 9 21 8 21 10 14 10 8 8 6 10 5 15 1 9v11l-2 13-6 15-8 11-10 9-10 6-11 5-21 5-7 1h-40l-25-4-16-5-4-2v-29l26 8 20 4 8 1h29l13-2 13-5 9-6 6-8 4-9 1-6v-10l-3-12-6-10-12-9-23-11-30-11-19-10-13-10-7-7-8-14-4-15-1-9v-11l3-16 6-12 9-10 7-6 15-8 13-4z" fill="#1D3948"/>
<path transform="translate(187,143)" d="m0 0h17l1 1v30l-2 1-17 1-5 3-3 4-2 12-1 37-3 20-4 12-6 10-12 12 10 9 6 8 5 12 3 13 2 27 1 22 2 12 1 4 8 2 16 1v30l-4 1h-22l-13-4-8-5-5-5-5-7-4-13-3-26v-24l-2-19-4-11-5-5-6-3-14-2v-35l16-3 7-4 4-8 3-15 3-49 3-18 4-9 6-8 8-6 13-4z" fill="#1D3948"/>
<path transform="translate(354,144)" d="m0 0h25l13 4 9 6 6 7 5 11 2 15 2 42 3 21 4 10 5 4 6 2 13 2v34l-1 1-12 2-10 5-4 6-2 7-2 31-2 29-2 14-5 12-6 8-9 6-13 4h-28v-30l1-1 19-2 5-3 3-5 1-8 2-47 3-16 5-12 7-9 9-8-13-13-5-8-3-10-4-36-3-35-3-6-5-2-19-1v-30z" fill="#1D3948"/>
<path transform="translate(1939,204)" d="m0 0h18l11 2v8l-3 17-2 2-14-2h-9l-14 3-10 5-9 8h-2l-2 4-7 11-5 12-2 11-1 113h-29v-191h23l1 1 3 29 1 5 10-14 11-11 11-7 10-4z" fill="#1D3948"/>
<path transform="translate(1352,393)" d="m0 0h25l33 1 13 3 8 5 4 6 2 9-1 13-5 10-5 6-11 7-10 4-15 3-11 1h-24l-14-2-12-5-8-6-5-9-1-4v-12l3-10 6-9 8-6 12-4z" fill="#FFFFFE"/>
<path transform="translate(1544,393)" d="m0 0h25l32 1 14 3 6 4 5 6 2 6v15l-4 10-9 10-10 6-13 4-21 3h-25l-13-2-11-4-8-6-4-5-3-7v-16l4-11 8-9 12-6z" fill="#FFFFFE"/>
<path transform="translate(1366,225)" d="m0 0h15l13 3 10 6 7 9 4 12 1 7v12l-3 13-5 9-8 7-9 4-11 2h-15l-9-2-12-6-8-9-5-13v-21l4-13 6-9 8-6 11-4z" fill="#FFFFFE"/>
<path transform="translate(1557,225)" d="m0 0h16l13 3 9 6 7 8 4 10 1 6v20l-4 13-6 8-9 6-10 3-7 1h-13l-11-2-10-5-5-4-7-11-2-6-1-8v-9l2-13 6-12 9-8 9-4z" fill="#FFFFFE"/>
<path transform="translate(1230,304)" d="m0 0h11l-1 30-4 13-6 11-8 8-10 6-11 4-5 1h-24l-11-4-7-5-5-8-2-7v-15l3-10 7-9 10-6 16-5 25-3z" fill="#FFFFFE"/>
<path transform="translate(1743,228)" d="m0 0h11l14 3 10 6 7 7 7 14 3 13 1 13h-100l1-10 4-14 6-11 8-10 11-7 10-3z" fill="#FFFFFE"/>
<path transform="translate(340,266)" d="m0 0h12l6 3 5 5 3 5v12l-5 8-6 5-2 1h-12l-8-4-5-6-2-4v-11l5-8 5-4z" fill="#1D3948"/>
<path transform="translate(204,266)" d="m0 0h12l8 4 5 7 1 3v11l-4 7-6 5-5 2h-10l-8-4-5-6-2-4v-11l3-6 7-6z" fill="#1D3948"/>
<path transform="translate(272,266)" d="m0 0h13l8 5 4 7 1 10-3 9-6 6-6 2h-10l-7-3-5-5-3-8v-8l5-10 6-4z" fill="#1D3948"/>
<path transform="translate(2e3 376)" d="m0 0h5l4 10 3 7 6-16 1-1h5v24h-4v-19l-6 18-4 1-4-10-2-7-1 17h-3l-1-20z" fill="#1D3948"/>
<path transform="translate(1979,376)" d="m0 0h18v3h-7v21h-3v-21h-8z" fill="#1D3948"/>
</svg>
